<svg xmlns="http://www.w3.org/2000/svg" style="display: none;"><symbol id="stone" viewBox="0 0 511.855 511.855"><title>stone</title><path id="XMLID_842_" d="m492.144 170.847c-12.007-12.007-31.475-12.007-43.482-.001l3.662-3.662c12.726-12.726 12.726-33.359 0-46.085s-33.359-12.726-46.085 0l6.625-6.625c12.779-12.779 12.779-33.499 0-46.278s-33.499-12.779-46.278 0l-1.665 1.665c13.699-13.699 13.699-35.909 0-49.608s-35.909-13.699-49.608 0l-49.534 49.534c-21.243-16.015-51.573-14.359-70.922 4.991l-40.106 40.106c-13.206 13.206-18.686 32.279-14.504 50.481l6.802 29.602-137.899 137.898.123 168.99h108.379l160.71-160.71 27.687 5.345c28.27 5.458 57.406-3.47 77.764-23.829l51.931-51.931 56.4-56.4c12.007-12.007 12.007-31.476 0-43.483z" fill="#f2bb88"/><g id="XMLID_360_"><path id="XMLID_465_" d="m499.215 163.775c-7.758-7.756-17.89-11.715-28.078-11.897 2.441-13.314-1.468-27.575-11.743-37.85-7.587-7.587-17.534-11.955-28.185-12.427.815-3.32 1.239-6.76 1.239-10.267 0-11.412-4.444-22.142-12.514-30.211-9.53-9.53-22.477-13.597-34.933-12.224 1.085-12.789-3.246-25.955-13.01-35.72-17.577-17.575-46.176-17.573-63.751 0l-43.81 43.811c-9.445-5.274-20.12-8.095-31.235-8.095-17.154 0-33.281 6.68-45.411 18.81l-40.106 40.105c-15.742 15.742-22.163 38.095-17.178 59.792l5.562 24.206-132.408 132.41c-3.905 3.905-3.905 10.237 0 14.143 1.953 1.952 4.512 2.929 7.071 2.929s5.118-.977 7.071-2.929l136.322-136.323c2.436-2.436 3.446-5.953 2.675-9.311l-6.801-29.602c-3.434-14.94.988-30.332 11.828-41.171l40.106-40.105c8.352-8.353 19.456-12.952 31.269-12.952 11.812 0 22.916 4.6 31.268 12.952l33.998 33.998c4.737 4.736 7.346 11.034 7.346 17.732s-2.608 12.996-7.346 17.732c-4.736 4.737-11.034 7.346-17.733 7.346-6.698 0-12.996-2.608-17.732-7.346l-19.794-19.794c-3.906-3.904-10.236-3.904-14.143 0-3.905 3.905-3.905 10.237 0 14.143 26.978 26.977 26.978 70.872 0 97.849l-.691.691c-3.905 3.905-3.905 10.237 0 14.143 1.953 1.952 4.512 2.929 7.071 2.929s5.118-.977 7.071-2.929l.691-.691c21.966-21.966 30.04-52.631 24.255-81.007 6.505 1.993 13.372 2.487 20.057 1.477 1.838 3.155 4.07 6.075 6.709 8.715 8.069 8.069 18.799 12.513 30.211 12.513 1.231 0 2.453-.062 3.666-.164-.106 1.23-.168 2.469-.168 3.719 0 11.375 4.43 22.07 12.474 30.114 8.304 8.303 19.206 12.453 30.113 12.453.968 0 1.936-.045 2.903-.11-.105 1.2-.167 2.409-.167 3.628 0 10.884 4.238 21.117 11.935 28.813 5.355 5.354 11.844 8.896 18.699 10.642l-27.147 27.147c-18.034 18.036-43.751 25.915-68.798 21.082l-27.687-5.345c-3.261-.631-6.619.4-8.967 2.747l-55.173 55.173c-3.905 3.905-3.905 10.237 0 14.143 1.953 1.952 4.512 2.929 7.071 2.929s5.118-.977 7.071-2.929l51.419-51.419 22.474 4.338c31.57 6.099 63.994-3.84 86.731-26.576l108.331-108.331c15.889-15.89 15.889-41.741.002-57.629zm-218.911-94.371 42.08-42.081c9.777-9.777 25.688-9.778 35.466.001 4.736 4.736 7.345 11.033 7.345 17.732 0 6.698-2.608 12.996-7.345 17.732l-42.234 42.234c-.943-1.148-1.947-2.255-3.011-3.319zm28.063 103.29c-.677-.677-1.301-1.391-1.88-2.133 2.149-1.498 4.201-3.192 6.116-5.108 8.515-8.514 13.204-19.834 13.204-31.875 0-3.22-.346-6.386-1-9.463l48.85-48.85c8.858-8.858 23.273-8.86 32.136 0 4.292 4.292 6.655 9.998 6.655 16.068 0 6.069-2.363 11.775-6.656 16.067l-65.29 65.291c-4.292 4.292-9.998 6.655-16.067 6.655-6.071.003-11.777-2.361-16.068-6.652zm46.181 46.181c-4.267-4.267-6.616-9.938-6.616-15.972s2.35-11.705 6.616-15.971l58.762-58.762c4.266-4.267 9.938-6.616 15.971-6.616s11.705 2.35 15.972 6.616c8.807 8.807 8.807 23.135 0 31.941l-58.761 58.763c-8.808 8.806-23.137 8.81-31.944.001zm130.524-11.616-56.399 56.399c-8.09 8.089-21.251 8.091-29.341 0 0 0 0 0-.001 0-3.918-3.918-6.076-9.128-6.076-14.67s2.158-10.752 6.077-14.67l56.4-56.401c4.045-4.045 9.357-6.067 14.67-6.067s10.625 2.022 14.67 6.067c8.09 8.09 8.09 21.253 0 29.342z"/><path id="XMLID_469_" d="m152.505 452.859-41.925 41.925c-3.905 3.905-3.905 10.237 0 14.143 1.953 1.952 4.512 2.929 7.071 2.929s5.118-.977 7.071-2.929l41.925-41.925c3.905-3.905 3.905-10.237 0-14.143-3.906-3.904-10.236-3.904-14.142 0z"/><path id="XMLID_471_" d="m191.369 418.137c-2.63 0-5.21 1.07-7.07 2.93-1.859 1.86-2.93 4.44-2.93 7.07s1.07 5.21 2.93 7.07c1.86 1.859 4.44 2.93 7.07 2.93s5.21-1.07 7.07-2.93c1.859-1.86 2.93-4.44 2.93-7.07s-1.07-5.21-2.93-7.07-4.44-2.93-7.07-2.93z"/></g></symbol><symbol id="scissors" viewBox="0 0 512.001 512.001"><title>scissors</title><path style="fill:#FED9A8;" d="M381.737,366.632c6.633-10.504,10.169-22.757,10.183-35.284l-6.576-108.197 c-0.173-13.966-10.969-25.748-25.165-26.871l0,0c-13.72-1.085-25.868,8.162-28.805,21.209l0.869-11.029 c1.185-15.041-10.046-28.197-25.087-29.386l-0.823-0.065c-15.048-1.19-28.263,9.936-29.448,24.985v0.001l12.613-164.087 c1.127-15.101-9.762-28.773-24.83-30.281c-15.58-1.559-29.285,10.026-30.437,25.54l-10.529,136.37 c-0.374,4.838-2.953,9.306-7.11,11.808c-7.88,4.743-12.131-0.457-14.869-9.439L174.51,61.254 c-4.449-14.59-20.088-23.099-34.754-18.908l-0.01,0.003c-14.654,4.465-22.912,19.965-18.444,34.618l44.796,175.882 c0,0-11.153,21.343-6.115,38.499l36.752,125.154l-4.239,77.789h149.886l-3.064-72.584c-0.048-1.144,0.318-2.266,1.032-3.162 L381.737,366.632z"/><path id="SVGCleanerId_0" style="fill:#FED9A8;" d="M159.983,291.347l36.752,125.154l-4.239,77.789h149.886l-3.064-72.584 c-0.048-1.144,0.318-2.266,1.032-3.162l41.387-51.912c6.633-10.504,10.169-22.757,10.183-35.284l-6.735-110.8l-110.77,13.565 l15.083-196.206c1.127-15.102-9.762-28.773-24.831-30.281c-15.58-1.559-29.285,10.026-30.437,25.54l-10.529,136.37 c-0.374,4.837-2.953,9.306-7.11,11.808c-7.88,4.743-12.131-0.458-14.869-9.439L174.51,61.254 c-4.449-14.59-20.088-23.099-34.753-18.908l-0.01,0.003c-14.654,4.465-22.912,19.965-18.444,34.618l44.796,175.882 C166.099,252.848,154.946,274.192,159.983,291.347z"/><g> <path id="SVGCleanerId_0_1_" style="fill:#FED9A8;" d="M159.983,291.347l36.752,125.154l-4.239,77.789h149.886l-3.064-72.584 c-0.048-1.144,0.318-2.266,1.032-3.162l41.387-51.912c6.633-10.504,10.169-22.757,10.183-35.284l-6.735-110.8l-110.77,13.565 l15.083-196.206c1.127-15.102-9.762-28.773-24.831-30.281c-15.58-1.559-29.285,10.026-30.437,25.54l-10.529,136.37 c-0.374,4.837-2.953,9.306-7.11,11.808c-7.88,4.743-12.131-0.458-14.869-9.439L174.51,61.254 c-4.449-14.59-20.088-23.099-34.753-18.908l-0.01,0.003c-14.654,4.465-22.912,19.965-18.444,34.618l44.796,175.882 C166.099,252.848,154.946,274.192,159.983,291.347z"/> </g><path style="fill:#F9CC95;" d="M297.218,303.296c1.085,0.086,2.173,0.129,3.262,0.129c5.722,0,11.202-1.206,16.199-3.368 c5.736,11.223,16.488,19.58,29.512,21.906l-4.092-67.328l-181.567-7.949c0,0-5.586,27.506-0.548,44.661l36.752,125.154 l27.649-56.013c8.215-16.643,10.779-35.511,7.303-53.742c-3.889-9.637-9.682-18.312-17.274-25.886 c0.156-0.192,0.306-0.356,0.44-0.492c0.83-0.842,2.252-1.849,4.288-1.858l32.04-0.096c3.446-0.014,6.779-0.513,9.948-1.415 c5.576,14.301,18.94,24.941,35.235,26.231L297.218,303.296z"/><g> <path style="fill:#F4C28C;" d="M381.737,366.632c6.633-10.504,10.169-22.757,10.183-35.285l-6.734-110.8l-44.818,5.607 l6.394,105.193c-0.014,12.527-3.551,24.78-10.183,35.285l-41.387,51.912c-0.714,0.895-1.08,2.018-1.032,3.162l3.064,72.584h45.158 l-3.064-72.584c-0.048-1.144,0.318-2.266,1.032-3.162L381.737,366.632z"/> <path style="fill:#F4C28C;" d="M264.668,7.627c-0.638-0.064-1.271-0.098-1.901-0.118c-0.157-0.005-0.314-0.008-0.471-0.011 c-0.587-0.009-1.172-0.004-1.752,0.024c-0.04,0.002-0.081,0.001-0.122,0.003c-0.633,0.033-1.26,0.092-1.883,0.167 c-0.117,0.014-0.234,0.03-0.351,0.046c-0.592,0.079-1.179,0.173-1.76,0.29c-0.026,0.005-0.053,0.009-0.079,0.014 c-0.637,0.13-1.266,0.283-1.887,0.456c-0.054,0.015-0.108,0.032-0.162,0.047c-0.612,0.175-1.218,0.366-1.813,0.582 c-0.002,0-0.003,0.001-0.005,0.002c-1.257,0.454-2.474,0.998-3.642,1.622c9.497,5.144,15.516,15.739,14.663,27.156l-11.94,159.953 c-1.136,15.216,5.651,29.944,17.957,38.965l4.403,3.228l1.109-13.969l14.463-188.152l0.002-0.025 c0.07-0.944,0.094-1.882,0.073-2.812c-0.032-1.395-0.166-2.772-0.394-4.121c-0.228-1.349-0.552-2.671-0.963-3.957 C284.92,16.73,275.969,8.757,264.668,7.627z"/> <path style="fill:#F4C28C;" d="M139.755,42.346l-0.009,0.002c-0.46,0.14-0.914,0.291-1.362,0.453 c-0.016,0.006-0.031,0.012-0.046,0.018c-0.432,0.157-0.858,0.323-1.277,0.499c-0.009,0.004-0.018,0.009-0.027,0.012 c-0.859,0.362-1.693,0.764-2.498,1.202c6.501,3.395,11.706,9.26,13.981,16.721l25.853,104.618 c2.046,8.281,9.061,14.392,17.544,15.285l18.799,1.979l-0.005-0.017c-4.288-0.292-7.024-4.783-8.985-11.213L174.51,61.254 c-0.374-1.226-0.833-2.406-1.358-3.542c-0.256-0.554-0.522-1.1-0.811-1.631c-0.441-0.81-0.92-1.594-1.433-2.349 c-0.514-0.755-1.062-1.481-1.642-2.177c-0.87-1.044-1.812-2.02-2.816-2.922c-0.335-0.301-0.676-0.594-1.024-0.878 c-1.391-1.137-2.886-2.141-4.461-2.997c-1.181-0.643-2.407-1.203-3.668-1.675c-1.681-0.63-3.424-1.102-5.206-1.406 c-0.445-0.076-0.893-0.141-1.343-0.196c-0.9-0.109-1.807-0.175-2.72-0.196c-0.001,0-0.001,0-0.002,0 c-0.889-0.02-1.783,0.003-2.678,0.069c-1.863,0.137-3.735,0.462-5.592,0.993L139.755,42.346z"/> </g><path style="fill:#FED9A8;" d="M351.316,308.573L351.316,308.573c15.048,1.19,28.211-10.047,29.396-25.095l4.553-57.811 c1.185-15.042-10.046-28.197-25.087-29.386l0,0c-15.048-1.19-28.211,10.047-29.396,25.095l-4.553,57.811 C325.044,294.228,336.275,307.383,351.316,308.573z"/><path style="fill:#F4C28C;" d="M360.179,196.28L360.179,196.28c-4.124-0.326-8.105,0.287-11.738,1.65 c6.464,2.061,10.909,8.344,10.353,15.399l-6.497,82.494c-0.39,4.952-3.16,9.136-7.091,11.552c1.946,0.616,3.989,1.029,6.111,1.198 l0,0c15.048,1.19,28.211-10.047,29.396-25.095l4.553-57.811C386.45,210.625,375.22,197.47,360.179,196.28z"/><path style="fill:#FED9A8;" d="M297.471,289.301l0.823,0.065c15.048,1.19,28.211-10.047,29.396-25.095l4.553-57.811 c1.185-15.042-10.046-28.197-25.087-29.386l-0.823-0.065c-15.048-1.19-28.263,9.936-29.448,24.985l-4.501,57.922 C271.199,274.956,282.429,288.111,297.471,289.301z"/><path style="fill:#2D5872;" d="M346.273,504.515H187.494c-5.232,0-9.474-4.242-9.474-9.474v-45.687c0-5.232,4.242-9.474,9.474-9.474 h158.779c5.232,0,9.474,4.242,9.474,9.474v45.687C355.747,500.273,351.506,504.515,346.273,504.515z"/><path style="fill:#1D4859;" d="M346.273,439.879h-36.1v64.636h36.1c5.233,0,9.474-4.242,9.474-9.474v-45.688 C355.747,444.121,351.506,439.879,346.273,439.879z"/><path style="fill:#F4C28C;" d="M307.155,177.073l-0.823-0.065c-1.747-0.138-3.467-0.102-5.147,0.081 c2.915,2.978,4.586,7.143,4.233,11.623l-6.497,82.494c-0.599,7.605-6.794,13.418-14.224,13.746 c3.705,2.421,8.051,3.975,12.773,4.348l0.823,0.065c15.048,1.19,28.211-10.047,29.396-25.095l4.553-57.811 C333.427,191.418,322.197,178.263,307.155,177.073z"/><path style="fill:#FED9A8;" d="M196.735,416.501L147.54,311.967c-4.052-7.384-6.222-15.7-6.31-24.175l-0.437-42.434 c-0.212-20.63,15.946-37.492,36.022-37.591l74.039-0.319c13.042-0.064,23.666,10.759,23.717,24.161l0.032,8.506 c0.051,13.382-10.459,24.27-23.482,24.324l-32.024,0.096c-11.279,0.047-20.361,9.518-20.241,21.108l0,0 c9.707,7.854,16.048,16.832,19.874,26.328C237.043,357.419,196.735,416.501,196.735,416.501z"/><path style="fill:#F4C28C;" d="M274.604,240.085l-0.032-8.474c0-0.002,0-0.004,0-0.005c-0.002-0.537-0.027-1.068-0.063-1.595 c-0.008-0.123-0.019-0.246-0.029-0.368c-0.041-0.496-0.093-0.989-0.163-1.477c-0.004-0.025-0.006-0.051-0.01-0.076 c-0.083-0.562-0.184-1.118-0.303-1.667c-0.002-0.009-0.004-0.018-0.006-0.027c-0.121-0.552-0.259-1.096-0.415-1.633l0,0 c-2.934,9.896-11.866,17.113-22.461,17.157l-32.024,0.096c-11.279,0.047-20.361,9.518-20.242,21.108l0,0v22.522 c-0.119-11.59,8.963-21.061,20.242-21.108l32.024-0.096c0.814-0.003,1.618-0.049,2.41-0.135c0.73-0.079,1.448-0.196,2.156-0.342 c0.136-0.028,0.27-0.058,0.405-0.088c0.69-0.155,1.37-0.337,2.036-0.553c0.369-0.119,0.734-0.248,1.094-0.385 c1.082-0.412,2.126-0.903,3.126-1.467c0.333-0.188,0.662-0.384,0.985-0.587c0.647-0.407,1.272-0.846,1.876-1.313 c0.302-0.234,0.598-0.475,0.888-0.723c0.577-0.493,1.13-1.014,1.658-1.561c0.003-0.003,0.007-0.007,0.01-0.01 c0.531-0.55,1.037-1.126,1.515-1.726c0.956-1.2,1.802-2.497,2.523-3.873c0.72-1.376,1.315-2.832,1.769-4.351 c0.227-0.76,0.418-1.535,0.572-2.324c0.308-1.579,0.467-3.212,0.46-4.885L274.604,240.085z"/><path d="M399.391,330.894l-6.565-108.004c-0.308-17.696-14.06-32.648-32.058-34.072c-7.994-0.633-15.779,1.457-22.306,5.911 c-3.897-13.546-15.858-23.941-30.714-25.117l-0.825-0.065c-7.225-0.576-14.281,1.068-20.395,4.652l6.212-80.806 c0.317-4.122-2.768-7.72-6.889-8.036c-4.105-0.337-7.719,2.767-8.036,6.888l-8.393,109.175c0,0.003,0,0.006,0,0.009l-0.347,4.471 c-5.249-3.854-11.528-5.935-18.098-5.935c-0.051,0-0.103,0-0.154,0l-74.043,0.319c-5.412,0.027-10.67,1.067-15.578,3.01 L128.556,75.119c-0.029-0.112-0.06-0.224-0.094-0.335c-1.577-5.174-1.045-10.653,1.498-15.427c2.535-4.757,6.764-8.247,11.913-9.832 c10.726-3.028,22.078,3.114,25.422,13.731l27.159,110.437c0.033,0.133,0.069,0.265,0.109,0.396c1.652,5.42,4.66,12.936,11.67,15.626 c3.054,1.171,8.001,1.784,14.219-1.958c6.139-3.696,10.144-10.292,10.712-17.645L241.695,33.72 c0.408-5.492,2.956-10.467,7.174-14.009c4.216-3.54,9.559-5.186,15.053-4.637c10.823,1.083,18.948,11.075,18.113,22.259 l-1.557,20.255c-0.317,4.122,2.768,7.72,6.889,8.036c4.101,0.328,7.719-2.767,8.036-6.888l1.558-20.271 c1.436-19.227-12.717-36.401-31.549-38.286c-9.543-0.951-18.836,1.91-26.17,8.069c-7.336,6.159-11.768,14.812-12.475,24.342 l-10.529,136.37c-0.196,2.536-1.507,4.769-3.507,5.972c-0.558,0.336-0.963,0.517-1.228,0.612c-0.464-0.556-1.455-2.053-2.564-5.633 l-27.16-110.444c-0.033-0.133-0.069-0.265-0.109-0.396c-5.643-18.506-25.368-29.238-43.969-23.923 c-0.042,0.013-0.094,0.027-0.135,0.041c-9,2.742-16.393,8.826-20.817,17.128c-4.395,8.25-5.337,17.708-2.659,26.656l33.791,132.674 c-0.566,0.518-1.122,1.051-1.665,1.602c-8.449,8.578-13.033,20.009-12.907,32.187l0.437,42.433c0.099,9.6,2.559,19.099,7.117,27.487 l48.296,102.623l-0.786,14.415h-0.879c-9.351,0-16.959,7.608-16.959,16.959v45.688c0,9.351,7.608,16.96,16.959,16.96h158.779 c9.351,0,16.959-7.609,16.959-16.96v-45.688c0-9.017-7.08-16.392-15.97-16.909l-0.423-10.033l40.75-51.113 c0.171-0.214,0.33-0.439,0.477-0.671c7.402-11.722,11.323-25.302,11.339-39.271C399.405,331.203,399.4,331.048,399.391,330.894z M333.691,279.774l0.831-10.551c0.295-1.43,0.512-2.885,0.629-4.365l3.632-46.109c0.983-4,3.164-7.592,6.359-10.319 c4.031-3.442,9.162-5.104,14.447-4.69c10.903,0.863,19.074,10.435,18.215,21.338l-4.553,57.811 c-0.416,5.284-2.866,10.091-6.898,13.532c-4.032,3.442-9.164,5.107-14.447,4.69C341.003,300.249,332.832,290.677,333.691,279.774z M279.846,260.494l0.844-10.865c0.003-0.011,0.006-0.023,0.009-0.035c0.209-0.688,0.39-1.389,0.554-2.096 c0.034-0.145,0.065-0.29,0.097-0.436c0.303-1.398,0.515-2.83,0.63-4.291c0.014-0.172,0.026-0.344,0.037-0.516 c0.045-0.717,0.075-1.439,0.072-2.168l-0.031-8.067l2.289-29.441c0.414-5.263,2.864-10.041,6.899-13.456 c4.042-3.422,9.197-5.073,14.494-4.655l0.823,0.065c0,0,0.001,0,0.002,0c10.902,0.862,19.074,10.434,18.214,21.337l-0.831,10.551 c-0.295,1.43-0.512,2.885-0.629,4.365l-3.632,46.109c-0.983,4-3.164,7.591-6.359,10.318c-4.032,3.442-9.158,5.106-14.445,4.69 l-0.824-0.065C287.158,280.977,278.986,271.405,279.846,260.494z M375.62,362.298l-41.12,51.578c-1.84,2.305-2.784,5.197-2.66,8.146 l0.438,10.372h-85.45c-4.134,0-7.485,3.351-7.485,7.485s3.351,7.485,7.485,7.485h99.445c1.097,0,1.99,0.893,1.99,1.989v45.688 c0,1.097-0.893,1.99-1.99,1.99H187.494c-1.097,0-1.99-0.893-1.99-1.99v-45.688c0-1.096,0.893-1.989,1.99-1.989H212 c4.134,0,7.485-3.351,7.485-7.485s-3.351-7.485-7.485-7.485h-8.635l0.841-15.438c0.016-0.266,0.018-0.533,0.006-0.801 c-0.002-0.054-0.011-0.106-0.014-0.159c-0.013-0.19-0.028-0.38-0.055-0.57c-0.017-0.118-0.044-0.233-0.067-0.349 c-0.024-0.122-0.043-0.244-0.073-0.365c-0.045-0.182-0.101-0.359-0.159-0.536c-0.018-0.055-0.031-0.11-0.05-0.165 c-0.089-0.252-0.191-0.499-0.305-0.738L154.312,308.78c-0.066-0.14-0.136-0.279-0.211-0.414c-3.45-6.286-5.312-13.427-5.387-20.65 l-0.437-42.433c-0.084-8.164,2.972-15.81,8.604-21.529c5.363-5.445,12.455-8.463,19.966-8.5l74.044-0.319c0.026,0,0.052,0,0.078,0 c4.157,0,8.101,1.642,11.114,4.628c3.209,3.181,4.986,7.47,5.004,12.076l0.001,0.137v0.001l0.032,8.368 c0.002,0.536-0.026,1.064-0.071,1.587c-0.015,0.175-0.042,0.348-0.063,0.523c-0.041,0.346-0.087,0.691-0.147,1.03 c-0.036,0.202-0.08,0.403-0.124,0.604c-0.067,0.309-0.14,0.615-0.224,0.918c-0.055,0.201-0.113,0.4-0.176,0.599 c-2.1,6.672-8.115,11.521-15.215,11.551l-32.034,0.096c-7.358,0.031-14.282,2.962-19.497,8.253 c-5.366,5.445-8.277,12.696-8.198,20.418c0.023,2.232,1.041,4.338,2.777,5.741c8.121,6.571,14.055,14.412,17.639,23.306 c4.351,10.797,5.348,23.621,2.964,38.116c-0.908,5.522-2.32,11.331-4.195,17.267c-1.246,3.941,0.94,8.147,4.882,9.392 c3.942,1.243,8.147-0.94,9.392-4.882c2.09-6.614,3.669-13.124,4.692-19.348c2.836-17.238,1.54-32.763-3.85-46.139 c-4.071-10.103-10.461-19.077-19.02-26.724c0.539-2.506,1.763-4.796,3.579-6.639c2.396-2.431,5.556-3.777,8.889-3.791l32.033-0.096 c5.133-0.022,9.969-1.328,14.23-3.606c2.773,15.141,15.445,27.172,31.495,28.442l0.825,0.065c0.937,0.074,1.871,0.111,2.8,0.111 c7,0,13.742-2.092,19.505-6.024c3.896,13.548,15.859,23.944,30.717,25.12l0,0c0.937,0.074,1.871,0.111,2.8,0.111 c8.27,0,16.187-2.91,22.546-8.339c2.526-2.157,4.691-4.623,6.473-7.319l1.889,31.077 C384.381,342.493,381.337,353.105,375.62,362.298z"/></symbol><symbol id="paper" viewBox="0 0 512.001 512.001"><title>paper</title><path style="fill:#FFCC80;" d="M416.003,96c-17.673,0-32,14.327-32,32V85.333c0-17.673-14.327-32-32-32c-17.673,0-32,14.327-32,32 V42.667c0-17.673-14.327-32-32-32c-17.673,0-32,14.327-32,32v42.667c0-17.673-14.327-32-32-32s-32,14.327-32,32v224l-74.069-37.035 c-7.405-3.703-15.571-5.631-23.851-5.632c-16.613,0-30.08,13.467-30.08,30.08v0.128c-0.017,8,3.154,15.677,8.811,21.333 l137.941,137.941c28.983,28.954,68.281,45.207,109.248,45.184l0,0c70.692,0,128-57.308,128-128V128 C448.003,110.327,433.676,96,416.003,96z"/><g> <path style="fill:#FFB74D;" d="M256.002,234.667c5.891,0,10.667-4.776,10.667-10.667V18.987 c-6.818,5.976-10.709,14.614-10.667,23.68V234.667z"/> <path style="fill:#FFB74D;" d="M320.003,234.667c5.891,0,10.667-4.776,10.667-10.667V61.653 c-6.818,5.976-10.709,14.614-10.667,23.68V234.667z"/> <path style="fill:#FFB74D;" d="M384.003,128v106.667c5.891,0,10.667-4.776,10.667-10.667V104.32 C387.852,110.296,383.96,118.934,384.003,128z"/> </g><path d="M320.003,512c-43.824,0.128-85.877-17.287-116.779-48.363L65.282,325.696c-15.941-15.951-15.934-41.804,0.017-57.745 c7.637-7.632,17.986-11.929,28.783-11.951c9.929,0.008,19.72,2.316,28.608,6.741l58.645,29.333V85.333 c0.012-23.564,19.125-42.657,42.689-42.644c7.482,0.004,14.831,1.975,21.311,5.716v-5.739C245.336,19.103,264.438,0,288.003,0 c23.564,0,42.667,19.103,42.667,42.667v5.739c20.407-11.782,46.502-4.79,58.284,15.617c3.741,6.48,5.712,13.829,5.716,21.311v5.739 c20.407-11.782,46.502-4.79,58.284,15.617c3.741,6.48,5.712,13.829,5.716,21.311v245.333 C458.575,449.878,396.547,511.906,320.003,512z M94.082,277.333c-10.769,0.03-19.474,8.785-19.443,19.554 c0.015,5.149,2.065,10.083,5.705,13.726l137.963,137.941c26.91,27.062,63.532,42.228,101.696,42.112 c64.767-0.082,117.251-52.566,117.333-117.333V128c0-11.782-9.551-21.333-21.333-21.333c-11.782,0-21.333,9.551-21.333,21.333v96 c0,5.891-4.776,10.667-10.667,10.667c-5.891,0-10.667-4.776-10.667-10.667V85.333c0-11.782-9.551-21.333-21.333-21.333 c-11.782,0-21.333,9.551-21.333,21.333V224c0,5.891-4.776,10.667-10.667,10.667c-5.891,0-10.667-4.776-10.667-10.667V42.667 c0-11.782-9.551-21.333-21.333-21.333c-11.782,0-21.333,9.551-21.333,21.333V224c0,5.891-4.776,10.667-10.667,10.667 c-5.891,0-10.667-4.776-10.667-10.667V85.333c0-11.782-9.551-21.333-21.333-21.333s-21.333,9.551-21.333,21.333v224 c0,5.891-4.776,10.667-10.667,10.666c-1.659,0-3.295-0.387-4.778-1.13l-74.155-37.035 C107.171,278.893,100.673,277.352,94.082,277.333z"/></symbol></svg>